<svg id="Layer_5" enable-background="new 0 0 64 64" height="512" viewBox="0 0 64 64" width="512" xmlns="http://www.w3.org/2000/svg" xmlns:xlink="http://www.w3.org/1999/xlink"><linearGradient id="SVGID_1_" gradientUnits="userSpaceOnUse" x1="32" x2="32" y1="63" y2="1"><stop offset="0" stop-color="#9f2fff"/><stop offset="1" stop-color="#0bb1d3"/></linearGradient><path d="m59.798 30.553 1.479-2.489-5.342-5.342-2.489 1.48c-.317-.147-.638-.281-.956-.4l-.713-2.802h-2.777v-17c0-1.654-1.346-3-3-3h-31.172c-.801 0-1.555.312-2.121.879l-10.828 10.828c-.567.566-.879 1.32-.879 2.122v45.171c0 1.654 1.346 3 3 3h42c1.654 0 3-1.346 3-3v-9h2.777l.713-2.802c.318-.119.639-.252.956-.4l2.489 1.48 5.342-5.342-1.479-2.489c.147-.317.281-.637.4-.956l2.802-.714v-7.555l-2.802-.713c-.119-.319-.253-.638-.4-.956zm-46.798-26.139v8.586h-8.586zm34 55.586c0 .551-.448 1-1 1h-42c-.552 0-1-.449-1-1v-45h12v-12h31c.552 0 1 .449 1 1v17h-2.777l-.713 2.802c-.318.119-.639.252-.956.4l-2.489-1.48-5.342 5.342 1.479 2.489c-.147.318-.281.637-.4.957l-2.802.713v7.555l2.802.713c.119.319.253.639.4.956l-1.479 2.489 5.342 5.342 2.489-1.48c.317.147.638.281.956.4l.713 2.802h2.777zm14-21.777-2.354.599-.168.528c-.179.559-.416 1.125-.704 1.683l-.256.493 1.246 2.096-3.143 3.143-2.095-1.246-.492.254c-.56.289-1.126.525-1.686.704l-.528.169-.597 2.354h-4.445l-.598-2.354-.528-.169c-.56-.179-1.126-.415-1.686-.704l-.492-.254-2.095 1.246-3.143-3.143 1.246-2.096-.256-.493c-.288-.558-.525-1.124-.704-1.683l-.168-.528-2.354-.599v-4.445l2.354-.599.168-.528c.179-.558.416-1.125.705-1.683l.255-.493-1.246-2.095 3.143-3.143 2.095 1.246.492-.254c.56-.289 1.126-.525 1.686-.704l.528-.169.597-2.356h4.445l.598 2.354.528.169c.56.179 1.126.415 1.686.704l.492.254 2.095-1.246 3.143 3.143-1.246 2.095.255.493c.289.559.526 1.125.705 1.683l.168.528 2.354.6zm-13-11.223c-4.963 0-9 4.038-9 9s4.037 9 9 9 9-4.038 9-9-4.037-9-9-9zm0 16c-3.859 0-7-3.14-7-7s3.141-7 7-7 7 3.14 7 7-3.141 7-7 7zm0-12c-2.757 0-5 2.243-5 5s2.243 5 5 5 5-2.243 5-5-2.243-5-5-5zm0 8c-1.654 0-3-1.346-3-3s1.346-3 3-3 3 1.346 3 3-1.346 3-3 3zm-5-26.586-13 13-4-4-20.293 20.293-1.414-1.414 21.707-21.707 4 4 11.586-11.586h-5.586v-2h9v9h-2zm-38 46.586h6v-16h-6zm2-14h2v12h-2zm6 14h6v-20h-6zm2-18h2v16h-2zm6 18h6v-24h-6zm2-22h2v20h-2zm10-32h-16v10h16zm-2 8h-12v-6h12zm-24 6h-2v-2h2zm12 0h-10v-2h10zm0 4h-14v-2h14zm12 32v-2h2v2zm4-2h10v2h-10zm-4 4h14v2h-14zm10-50h-2v-2h2zm4 0h-2v-2h2zm-8 0h-2v-2h2z" fill="url(#SVGID_1_)"/></svg>