<svg id="Layer_5" enable-background="new 0 0 64 64" height="512" viewBox="0 0 64 64" width="512" xmlns="http://www.w3.org/2000/svg" xmlns:xlink="http://www.w3.org/1999/xlink"><linearGradient id="SVGID_1_" gradientUnits="userSpaceOnUse" x1="32.368" x2="32.368" y1="63" y2="1"><stop offset="0" stop-color="#9f2fff"/><stop offset="1" stop-color="#0bb1d3"/></linearGradient><path d="m10.849 57.992 1.535-.755c.116.052.232.101.35.146l.55 1.617h5.432l.551-1.617c.117-.046.233-.095.35-.146l1.535.755 3.84-3.841-.755-1.534c.052-.116.101-.233.146-.35l1.617-.551v-5.432l-1.617-.551c-.046-.117-.095-.233-.146-.35l.755-1.534-3.84-3.841-1.535.755c-.116-.052-.232-.101-.35-.146l-.551-1.617h-5.432l-.551 1.617c-.117.046-.233.095-.35.146l-1.535-.755-3.84 3.841.755 1.534c-.052.116-.101.233-.146.35l-1.617.551v5.432l1.617.551c.046.117.095.233.146.35l-.754 1.533zm-2.849-10.276 1.19-.405.155-.476c.108-.334.25-.672.419-1.006l.228-.446-.558-1.133 1.816-1.816 1.133.558.447-.228c.332-.169.67-.311 1.004-.42l.476-.155.406-1.189h2.568l.405 1.19.476.155c.334.109.672.25 1.004.42l.447.228 1.133-.558 1.816 1.816-.558 1.133.228.446c.169.333.311.672.419 1.006l.155.476 1.191.404v2.568l-1.19.405-.155.476c-.108.334-.25.672-.419 1.006l-.228.446.558 1.133-1.816 1.816-1.133-.558-.447.228c-.332.169-.67.311-1.004.42l-.476.155-.406 1.189h-2.568l-.405-1.19-.476-.155c-.334-.109-.672-.25-1.004-.42l-.447-.228-1.133.558-1.816-1.816.558-1.133-.228-.446c-.169-.333-.311-.672-.419-1.006l-.156-.475-1.19-.405zm8 6.284c2.757 0 5-2.243 5-5s-2.243-5-5-5-5 2.243-5 5 2.243 5 5 5zm0-8c1.654 0 3 1.346 3 3s-1.346 3-3 3-3-1.346-3-3 1.346-3 3-3zm0 17c5.957 0 11.042-3.746 13.061-9h16.013c.851 0 1.654.356 2.206.977 1.707 1.921 4.157 3.023 6.72 3.023 3.244 0 6.258-1.724 7.865-4.499l.87-1.501h-4.735c-1.654 0-3-1.346-3-3s1.346-3 3-3h4.735l-.87-1.501c-.496-.855-1.137-1.596-1.865-2.232v-36.267c0-2.757-2.243-5-5-5h-30c-2.757 0-5 2.243-5 5v29.59c-1.269-.38-2.61-.59-4-.59-7.72 0-14 6.28-14 14s6.28 14 14 14zm38-46h-28v-10h28zm-28 2h28v10h-28zm0 12h28v9c-2.563 0-5.013 1.102-6.72 3.023-.551.621-1.356.977-2.206.977h-16.013c-.692-1.8-1.736-3.424-3.061-4.779zm32 13c-2.757 0-5 2.243-5 5s2.243 5 5 5h.96c-1.304 1.262-3.082 2-4.96 2-1.992 0-3.897-.857-5.225-2.352-.93-1.047-2.279-1.648-3.701-1.648h-15.406c.212-.968.332-1.97.332-3s-.12-2.032-.332-3h15.406c1.421 0 2.77-.601 3.7-1.648 1.329-1.495 3.234-2.352 5.226-2.352 1.878 0 3.656.738 4.96 2zm-36-38c0-1.654 1.346-3 3-3h30c1.654 0 3 1.346 3 3v34.941c-.635-.309-1.303-.546-2-.703v-33.238c0-1.103-.897-2-2-2h-28c-1.103 0-2 .897-2 2v30.527c-.63-.441-1.3-.823-2-1.157zm-6 31c6.617 0 12 5.383 12 12s-5.383 12-12 12-12-5.383-12-12 5.383-12 12-12zm14-22h8c1.103 0 2-.897 2-2v-2c0-1.103-.897-2-2-2h-8c-1.103 0-2 .897-2 2v2c0 1.103.897 2 2 2zm0-4h8l.001 2h-8.001zm20 10h-8c-1.103 0-2 .897-2 2v2c0 1.103.897 2 2 2h8c1.103 0 2-.897 2-2v-2c0-1.103-.897-2-2-2zm-8 4v-2h8l.001 2zm-12 14h8c1.103 0 2-.897 2-2v-2c0-1.103-.897-2-2-2h-8c-1.103 0-2 .897-2 2v2c0 1.103.897 2 2 2zm0-4h8l.001 2h-8.001zm22-20h-2v-2h2zm0-4h-2v-2h2zm-4 0h-2v-2h2zm0 4h-2v-2h2zm-16 10h2v2h-2zm0-4h2v2h-2zm-4 4h2v2h-2zm0-4h2v2h-2zm24 18h-2v-2h2zm0-4h-2v-2h2zm-4 0h-2v-2h2zm0 4h-2v-2h2z" fill="url(#SVGID_1_)"/></svg>