<svg id="Layer_1" height="512" viewBox="0 0 512 512" width="512" xmlns="http://www.w3.org/2000/svg" xmlns:xlink="http://www.w3.org/1999/xlink" data-name="Layer 1"><linearGradient id="linear-gradient" gradientUnits="userSpaceOnUse" x1="105" x2="105" y1="392" y2="163.439"><stop offset=".322" stop-color="#a163f5"/><stop offset=".466" stop-color="#b074ee"/><stop offset=".752" stop-color="#d8a1dd"/><stop offset=".898" stop-color="#efbad3"/></linearGradient><linearGradient id="linear-gradient-3" x1="256" x2="256" xlink:href="#linear-gradient" y1="392" y2="163.439"/><path d="m105 272.6a6 6 0 0 0 -6 6v6.3a6 6 0 0 0 12 0v-6.3a6 6 0 0 0 -6-6z" fill="url(#linear-gradient)"/><path d="m105 297.9a6 6 0 0 0 -6 6v65a6 6 0 0 0 12 0v-65a6 6 0 0 0 -6-6z" fill="url(#linear-gradient)"/><path d="m425 256.808v-64.808c0-93.233-75.766-169.084-169-169.084s-169 75.846-169 169.084v64.813a75.495 75.495 0 0 0 26.483 146.187h13.479a25.417 25.417 0 0 0 22.086 13.7 25.721 25.721 0 0 0 25.952-25.907v-127.339a25.4 25.4 0 0 0 -25.952-25.534c-9.644.166-17.89 6.08-22.086 14.08h-.962v-58.526c0-71.7 58.3-130.039 130-130.039s130 58.336 130 130.039v58.526h-.522c-4.29-9-12.873-14.084-22.794-14.084a25.561 25.561 0 0 0 -25.684 25.538v127.339a25.73 25.73 0 0 0 48.478 12.207h13.039a75.347 75.347 0 0 0 16.976-1.949c-4.037 33.336-32.743 59.949-67.466 59.949h-57.027v-9.508c0-3.313-2.564-6.492-5.877-6.492h-48.271a22 22 0 0 0 0 44h48.271a5.821 5.821 0 0 0 5.877-5.911v-10.089h57.027a80.161 80.161 0 0 0 79.873-75.952 75.494 75.494 0 0 0 -2.9-140.24zm-49 133.985a13.5 13.5 0 1 1 -27 0v-127.339a13.5 13.5 0 1 1 27 0zm-126 86.207h-13.148a10 10 0 0 1 0-20h13.148zm29 0h-17v-20h17zm-149-189a6 6 0 0 0 6-6v-18.4a13.742 13.742 0 0 1 13.126-13.867 13.546 13.546 0 0 1 13.874 13.721v127.191a13.741 13.741 0 0 1 -13.125 13.866 13.546 13.546 0 0 1 -13.875-13.718v-68.793a6 6 0 0 0 -12 0v68.485.515h-10.52a63.5 63.5 0 0 1 0-127h10.52v18a6 6 0 0 0 6 6zm126-236.565c-78.321 0-142 63.718-142 142.039v58.526h-.517a75.555 75.555 0 0 0 -14.483 1.409v-61.409c0-86.617 70.383-157.084 157-157.084s157 70.462 157 157.084v61.414a75.555 75.555 0 0 0 -14.483-1.414h-.517v-58.526c0-78.321-63.679-142.039-142-142.039zm142.517 339.565h-10.517v-127h10.517a63.5 63.5 0 0 1 0 127z" fill="url(#linear-gradient-3)"/></svg>